<?xml version="1.0" standalone="no"?>
<!DOCTYPE svg PUBLIC "-//W3C//DTD SVG 20010904//EN"
 "http://www.w3.org/TR/2001/REC-SVG-20010904/DTD/svg10.dtd">
<svg version="1.0" xmlns="http://www.w3.org/2000/svg"
 width="700.000000pt" height="700.000000pt" viewBox="0 0 700.000000 700.000000"
 preserveAspectRatio="xMidYMid meet">
<metadata>
Created by potrace 1.11, written by Peter Selinger 2001-2013
</metadata>
<g transform="translate(0.000000,700.000000) scale(0.100000,-0.100000)"
fill="#000000" stroke="none">
<path d="M0 3500 l0 -3500 2262 0 c1244 0 2259 3 2255 6 -3 3 -31 24 -62 47
-31 23 -167 164 -301 312 l-243 270 0 97 c-1 53 3 99 8 102 4 3 91 17 192 32
101 14 186 28 188 30 7 7 -744 739 -759 739 -13 0 -830 -680 -830 -691 0 -6
73 -27 163 -48 89 -21 179 -42 200 -48 l38 -9 -7 -82 c-5 -65 -11 -87 -29
-107 -12 -14 -133 -148 -268 -298 -136 -150 -248 -274 -251 -275 -2 -1 -92 93
-198 209 -106 116 -287 313 -401 437 l-208 227 203 222 c350 383 536 587 752
824 115 126 224 245 242 264 l33 35 -260 295 c-144 162 -264 295 -268 295 -13
0 -89 -71 -396 -369 -159 -155 -311 -302 -337 -325 -52 -47 -55 -58 -33 -100
12 -24 41 -39 186 -97 l172 -69 -269 -263 c-148 -145 -345 -336 -439 -424
l-169 -161 -46 50 c-25 27 -157 177 -294 332 l-249 284 6 140 c5 118 9 143 25
161 11 11 205 242 433 511 227 270 443 526 481 570 37 43 66 80 64 82 -2 2
-342 -19 -756 -47 -415 -27 -755 -48 -756 -47 -4 4 -52 712 -48 716 2 2 338
-3 746 -13 409 -9 758 -16 776 -16 l33 0 -48 61 c-542 687 -989 1266 -984
1276 3 6 143 186 310 398 l304 387 341 -340 c238 -237 366 -357 424 -397 77
-53 82 -59 82 -93 0 -20 3 -46 6 -58 5 -20 -3 -22 -197 -53 -111 -18 -208 -35
-215 -38 -7 -2 74 -89 184 -196 109 -106 280 -273 382 -373 102 -99 207 -200
233 -224 47 -43 48 -43 66 -24 79 83 501 567 501 573 0 5 -264 285 -586 622
-554 580 -648 688 -630 717 2 4 59 75 126 157 66 83 182 227 258 320 75 94
186 230 246 304 l110 134 302 -309 302 -309 7 -83 c4 -46 5 -86 2 -88 -2 -3
-89 -25 -193 -49 -104 -25 -197 -48 -208 -53 -19 -8 -25 -3 583 -569 101 -95
188 -173 192 -173 5 0 64 53 131 118 68 65 249 239 403 386 154 147 281 271
283 275 2 6 -68 23 -345 82 l-53 11 1 56 c1 122 -9 108 288 437 150 168 277
305 281 305 4 0 129 -129 276 -287 148 -158 331 -354 407 -435 76 -81 137
-152 135 -157 -2 -6 -812 -873 -1235 -1321 l-52 -56 72 -84 c353 -417 422
-497 438 -514 17 -18 18 -18 44 2 15 12 149 139 298 284 150 145 338 327 419
406 81 78 148 146 148 150 0 4 -91 37 -203 74 -111 38 -209 71 -217 74 -11 4
-5 14 25 41 38 34 222 213 628 612 106 105 191 180 196 175 14 -16 581 -883
586 -897 5 -12 -59 -91 -724 -881 -152 -181 -278 -333 -279 -338 -2 -5 40 -6
100 -3 140 8 1283 45 1380 45 l78 0 0 -385 0 -384 -77 5 c-43 2 -341 13 -663
24 -322 11 -638 22 -702 26 -65 3 -118 3 -118 0 0 -19 506 -635 743 -905 l275
-314 -31 -49 c-194 -296 -573 -857 -579 -855 -21 7 -849 825 -840 830 4 3 99
35 212 72 113 37 208 69 212 71 3 2 -132 138 -300 301 -169 164 -365 354 -435
423 -70 69 -134 125 -142 125 -8 0 -133 -135 -280 -300 -206 -233 -262 -302
-253 -310 7 -7 164 -144 348 -307 l335 -295 285 -363 c157 -200 291 -373 299
-385 13 -21 -3 -42 -354 -446 -203 -233 -375 -432 -383 -441 -14 -17 45 -18
1221 -18 l1237 0 0 3500 0 3500 -3500 0 -3500 0 0 -3500z"/>
<path d="M3370 3989 c-189 -224 -193 -229 -188 -235 3 -2 145 -3 316 -2 l310
3 -145 195 c-80 107 -148 196 -152 197 -3 1 -67 -70 -141 -158z"/>
<path d="M3170 3246 c0 -4 47 -70 104 -149 91 -123 208 -247 233 -247 4 0 17
15 29 33 11 17 64 85 117 149 54 65 97 122 97 126 0 5 -120 26 -267 46 -148
21 -278 40 -290 43 -13 3 -23 2 -23 -1z"/>
</g>
</svg>
